<?xml version="1.0" encoding="utf-8"?>
<!-- Generator: Adobe Illustrator 15.0.0, SVG Export Plug-In . SVG Version: 6.00 Build 0)  -->
<!DOCTYPE svg PUBLIC "-//W3C//DTD SVG 1.1//EN" "http://www.w3.org/Graphics/SVG/1.1/DTD/svg11.dtd">
<svg version="1.1" id="Layer_1" xmlns="http://www.w3.org/2000/svg" xmlns:xlink="http://www.w3.org/1999/xlink" x="0px" y="0px"
	 width="311.802px" height="50px" viewBox="0 0 311.802 50" enable-background="new 0 0 311.802 50" xml:space="preserve">
<g>
	<path fill="#808285" d="M69.485,32.592c0.044,0.901,0.022,1.825,0.044,2.728c0.022,1.824-0.549,3.516-1.385,5.1
		c-0.704,1.296-1.825,2.309-3.254,2.77c-1.429,0.417-2.814,0.22-3.891-0.944c-0.352-0.375-0.681-0.77-0.923-1.188
		c-0.747-1.188-0.198-3.231,0.968-3.849c0.461-0.24,0.856-0.195,1.276,0.09c0.086,0.066,0.197,0.219,0.197,0.33
		c0,0.086-0.132,0.22-0.243,0.242c-0.152,0.065-0.352,0.043-0.527,0.109c-0.154,0.044-0.352,0.131-0.44,0.263
		c-0.659,1.078-0.967,2.198,0.375,3.385c0.922,0.836,1.956,0.903,3.055,0.749c0.154-0.021,0.353-0.131,0.462-0.264
		c0.418-0.572,0.88-1.122,1.077-1.868c0.593-2.288,0.747-4.573,0.351-6.904c-0.374-2.329-0.572-4.683-0.46-7.056
		c0.043-1.056,0.262-2.045,0.835-2.991c0.682-1.099,1.692-1.605,2.836-1.978c0.549-0.176,1.01-0.022,1.363,0.373
		c0.616,0.682,1.056,1.473,1.035,2.462c-0.023,0.989-0.289,1.905-1.447,2.22c-0.059,0.016-0.159-0.004-0.224-0.027
		c-0.045-0.043,0.098-0.184-0.053-0.184c-0.46,0,0.425-0.293,0.578-0.47c0.727-0.748,0.682-1.649,0.463-2.572
		c-0.023-0.065-0.066-0.154-0.11-0.242c-0.242-0.483-0.878-1.011-1.252-0.901c-0.528,0.153-0.858,0.572-0.946,1.078
		c-0.11,0.659-0.153,1.362-0.177,2.044c0,0.681,0.066,1.363,0.111,2.043c-0.021,0,0.026,0.166,0.004,0.166
		C69.315,29.13,69.375,30.767,69.485,32.592z"/>
	<path fill="#808285" d="M98.744,25.468c-1.714,3.298-7.827,12.245-9.387,14.203c-0.199,0.221-0.44,0.417-0.637,0.658
		c-0.176,0.221-0.375,0.44-0.506,0.705c-0.725,1.451-1.759,2.661-2.924,3.76c-0.572,0.527-1.188,1.011-1.912,1.341
		c-0.639,0.263-1.188,0.131-1.605-0.309c-0.55-0.595-0.966-1.273-0.901-2.131c0.067-0.992,0.176-1.98,0.352-2.946
		c0.396-2.288,0.814-4.574,1.605-6.773c0.044-0.086,0.044-0.196,0.066-0.306c0-0.089,0.022-0.177,0.045-0.354
		c0-0.043,0-0.109,0.021-0.176l-0.066,0.11l-0.109,0.153l0.154-0.088l0.043-0.043l0.044-0.022l0.066-0.351l-0.44,0.24l0.242,0.11
		l0.088,0.022l0.131,0.065l-0.043,0.109c-0.549,0.177-0.726,0.484-1.034,0.879c-1.034,1.364-2.462,2.288-3.847,3.256
		c-0.22,0.153-0.462,0.241-0.705,0.307c-0.241,0.045-0.461,0.11-0.747,0.198c-2.309-0.528-3.298-3.626-2.706-5.32
		c0.793-2.198,1.694-4.33,3.277-6.111c0.725-0.814,1.604-1.452,2.462-2.067c0.219-0.154,0.484-0.242,0.747-0.33
		c0.44-0.132,0.902-0.264,1.364-0.352s0.944-0.176,1.406-0.198c0.746-0.022,1.275,0.439,1.715,0.901
		c0.088,0.111,0.11,0.242,0.11,0.374c0,0.133,0,0.287,0,0.396c0.022,0.175-0.22,0.198-0.243,0.198c-0.087,0-0.219-0.065-0.263-0.153
		c-0.065-0.154-0.088-0.308-0.199-0.638c-0.308-0.154-0.462-0.243-0.636-0.286c-0.243-0.088-0.463-0.132-0.704-0.066
		c-0.332,0.11-0.683,0.198-0.99,0.308c-0.331,0.132-0.681,0.308-0.967,0.594c-1.165,1.165-2.176,2.418-2.858,3.912
		c-0.463,1.012-0.991,2.002-1.452,3.014c-0.33,0.746-0.505,1.538-0.637,2.33c-0.11,0.703,0.109,1.362,0.286,2
		c0.132,0.505,0.638,0.704,1.165,0.439c0.175-0.11,0.375-0.221,0.55-0.329c1.429-0.968,2.704-2.089,3.783-3.43
		c0.328-0.396,0.681-0.814,1.076-1.122c0.439-0.329,0.66-0.746,0.857-1.231c0.485-1.186,0.967-2.395,1.452-3.584
		c0.285-0.703,0.681-1.297,1.253-1.822c0.527-0.507,1.164-0.749,1.869-0.88c0.505-0.088,0.923,0.351,0.856,0.858
		c-0.044,0.264-0.154,0.528-0.285,0.747c-0.461,0.857-1.012,1.693-1.429,2.571c-0.375,0.771-0.615,1.606-0.923,2.397
		c-0.154,0.351-0.287,0.726-0.461,1.077c-0.705,1.428-1.32,2.857-1.628,4.441c-0.109,0.657-0.351,1.318-0.572,1.978
		c-0.329,1.012-0.571,2.066-0.704,3.123c-0.021,0.307-0.088,0.615-0.219,0.901c-0.154,0.396-0.22,0.793-0.243,1.188
		c-0.022,0.373,0,0.745,0.022,1.736c0.682-0.44,0.813-0.551,0.966-0.683c0.264-0.197,0.484-0.416,0.705-0.638
		c0.241-0.219,0.483-0.439,0.792-0.615c0.11-0.065,0.197-0.155,0.308-0.265c0.087-0.132,0.175-0.263,0.285-0.373
		c0.242-0.285,0.484-0.593,0.725-0.879c0.198-0.22,0.354-0.461,0.463-0.748c0.219-0.55,0.484-1.122,1.121-1.384
		c0.131-0.066,0.241-0.221,0.331-0.353c1.23-1.914,2.748-4.375,4.198-6.134c0.88-1.076,4.969-6.661,5.496-8.244L98.744,25.468z"/>
	<path fill="#808285" d="M112.697,29.69c-1.055,1.517-2.22,2.989-3.188,4.527c-0.791,1.232-1.845,2.266-2.813,3.365
		c-0.219,0.264-0.505,0.481-0.813,0.703c-0.308,0.197-0.615,0.417-0.902,0.659c-0.681,0.594-1.604,0.968-2.417,1.407
		c-0.616,0.352-1.584,0.131-2.089-0.395c-0.439-0.463-0.748-0.902-0.814-1.452c-0.109-0.812-0.175-1.604,0.046-2.353
		c0.46-1.539,0.923-3.056,1.406-4.596c0.505-1.603,1.054-3.21,1.582-4.792c0.154-0.418,0.308-0.813,0.418-1.231
		c0.067-0.219-0.11-0.462-0.374-0.484c-0.439-0.066-0.857-0.066-1.143-0.088c-1.78,0.176-3.187-0.352-4.44-1.385
		c-0.462-0.396-0.44-0.769,0.108-0.967c0.265-0.109,0.551-0.176,0.859-0.219c0.375-0.045,0.725,0.066,0.902,0.351
		c0.726,1.188,1.89,1.518,3.209,1.539c0.263,0,0.55,0,0.814,0.045c0.923,0.153,1.803,0.834,2.001,1.626
		c0.109,0.374,0.153,0.792,0.109,1.165c-0.221,2.132-0.703,4.199-1.495,6.178c-0.55,1.363-1.012,2.749-1.275,4.221
		c-0.088,0.374-0.11,0.771-0.11,1.166c0,0.418,0.484,0.68,0.902,0.549c0.219-0.088,0.461-0.197,0.637-0.329
		c0.836-0.595,1.628-1.208,2.332-1.912c1.714-1.716,3.274-3.541,4.485-5.563c0.57-0.989,1.274-1.891,1.933-2.835
		c0.593-0.857,1.188-1.714,1.804-2.571c0.109-0.178,0.286-0.331,0.483-0.463c0.198-0.154,0.417-0.088,0.594,0.088
		c0.087,0.11,0.13,0.352,0.087,0.395c-0.637,0.528-1.121,1.123-1.561,1.76C113.511,28.415,113.115,29.073,112.697,29.69z"/>
	<path fill="#808285" d="M135.556,25.468c-1.715,3.298-7.827,12.245-9.388,14.203c-0.197,0.221-0.439,0.417-0.636,0.658
		c-0.177,0.221-0.375,0.44-0.507,0.705c-0.726,1.451-1.757,2.661-2.924,3.76c-0.571,0.527-1.187,1.011-1.914,1.341
		c-0.636,0.263-1.186,0.131-1.604-0.309c-0.55-0.595-0.966-1.273-0.901-2.131c0.067-0.992,0.177-1.98,0.352-2.946
		c0.396-2.288,0.814-4.574,1.606-6.773c0.042-0.086,0.042-0.196,0.064-0.306c0-0.089,0.023-0.177,0.046-0.354
		c0-0.043,0-0.109,0.021-0.176l-0.067,0.11l-0.108,0.153l0.154-0.088l0.043-0.043l0.045-0.022l0.065-0.351l-0.44,0.24l0.24,0.11
		l0.089,0.022l0.131,0.065l-0.044,0.109c-0.549,0.177-0.725,0.484-1.033,0.879c-1.033,1.364-2.463,2.288-3.847,3.256
		c-0.22,0.153-0.462,0.241-0.704,0.307c-0.242,0.045-0.461,0.11-0.747,0.198c-2.309-0.528-3.298-3.626-2.705-5.32
		c0.791-2.198,1.692-4.33,3.277-6.111c0.725-0.814,1.604-1.452,2.461-2.067c0.221-0.154,0.484-0.242,0.748-0.33
		c0.44-0.132,0.902-0.264,1.363-0.352c0.462-0.088,0.946-0.176,1.407-0.198c0.748-0.022,1.275,0.439,1.715,0.901
		c0.087,0.111,0.11,0.242,0.11,0.374c0,0.133,0,0.287,0,0.396c0.022,0.175-0.22,0.198-0.242,0.198c-0.089,0-0.219-0.065-0.263-0.153
		c-0.066-0.154-0.088-0.308-0.199-0.638c-0.308-0.154-0.461-0.243-0.637-0.286c-0.242-0.088-0.463-0.132-0.704-0.066
		c-0.329,0.11-0.681,0.198-0.989,0.308c-0.33,0.132-0.682,0.308-0.967,0.594c-1.166,1.165-2.177,2.418-2.859,3.912
		c-0.461,1.012-0.989,2.002-1.451,3.014c-0.33,0.746-0.505,1.538-0.636,2.33c-0.11,0.703,0.108,1.362,0.285,2
		c0.132,0.505,0.637,0.704,1.166,0.439c0.174-0.11,0.374-0.221,0.548-0.329c1.43-0.968,2.704-2.089,3.782-3.43
		c0.329-0.396,0.681-0.814,1.078-1.122c0.438-0.329,0.658-0.746,0.856-1.231c0.483-1.186,0.967-2.395,1.451-3.584
		c0.286-0.703,0.683-1.297,1.253-1.822c0.526-0.507,1.165-0.749,1.868-0.88c0.506-0.088,0.924,0.351,0.858,0.858
		c-0.044,0.264-0.154,0.528-0.286,0.747c-0.461,0.857-1.011,1.693-1.428,2.571c-0.375,0.771-0.616,1.606-0.923,2.397
		c-0.154,0.351-0.287,0.726-0.462,1.077c-0.704,1.428-1.32,2.857-1.627,4.441c-0.109,0.657-0.352,1.318-0.571,1.978
		c-0.33,1.012-0.572,2.066-0.705,3.123c-0.021,0.307-0.087,0.615-0.218,0.901c-0.154,0.396-0.221,0.793-0.243,1.188
		c-0.021,0.373,0,0.745,0.021,1.736c0.683-0.44,0.814-0.551,0.968-0.683c0.263-0.197,0.484-0.416,0.704-0.638
		c0.24-0.219,0.484-0.439,0.791-0.615c0.111-0.065,0.199-0.155,0.309-0.265c0.087-0.132,0.175-0.263,0.284-0.373
		c0.244-0.285,0.485-0.593,0.727-0.879c0.197-0.22,0.352-0.461,0.46-0.748c0.221-0.55,0.485-1.122,1.123-1.384
		c0.131-0.066,0.241-0.221,0.33-0.353c1.231-1.914,2.748-4.375,4.199-6.134c0.879-1.076,4.969-6.661,5.495-8.244L135.556,25.468z"/>
	<path fill="#808285" d="M139.066,42.375c-0.154-0.571-0.176-1.164-0.11-1.716c0.132-1.471,0.572-2.835,1.1-4.176
		c0.593-1.584,1.099-3.21,1.627-4.836c0.352-1.1,0.769-2.178,1.143-3.255c0.065-0.176,0.176-0.352,0.176-0.528
		c0-0.22-0.022-0.505-0.132-0.681c-0.198-0.285-0.44-0.131-0.661-0.045c-0.703,0.309-1.428,0.639-2.132,0.945
		c-0.174,0.066-0.374,0.133-0.482,0.264c-1.253,1.43-2.837,2.529-4.046,4.002c-0.66,0.791-1.122,1.737-1.473,2.727
		c-0.418,1.274-0.791,2.572-1.539,3.671c-0.264,0.375-0.55,0.704-0.859,1.055c-0.197,0.242-0.504,0.176-0.79,0
		c-0.308-0.154-0.46-0.395-0.417-0.727c0.021-0.13,0.044-0.283,0.087-0.416c0.792-2.792,1.539-5.627,2.374-8.398
		c0.925-3.099,1.892-6.199,2.924-9.255c0.55-1.671,1.495-3.121,2.419-4.573c0.461-0.748,0.922-1.473,1.428-2.176
		c0.88-1.253,1.935-2.375,3.167-3.321c0.395-0.285,0.857-0.526,1.363-0.659c1.076-0.33,2,0.33,2.086,1.496
		c0.156,1.693-0.021,3.319-0.681,4.837c-0.703,1.561-1.67,2.901-2.66,4.243c-0.944,1.274-2.023,2.418-3.21,3.474
		c-0.175,0.153-0.308,0.351-0.506,0.438c-1.517,0.749-2.132,2.155-2.637,3.65c-0.198,0.571-0.44,1.12-0.639,1.692
		c-0.022,0.065,0.044,0.198,0.111,0.241c0.021,0.044,0.174,0.023,0.219-0.021c0.813-0.792,1.781-1.385,2.594-2.177
		c0.923-0.856,2.066-1.494,3.407-1.692c0.682-0.11,1.253,0.065,1.781,0.595c0.902,0.9,1.386,1.911,1.23,3.076
		c-0.174,1.474-0.505,2.88-1.164,4.134c-0.902,1.758-1.67,3.562-2.352,5.408c-0.309,0.857-0.485,1.804-0.661,2.704
		c-0.044,0.242,0.087,0.616,0.265,0.79c0.264,0.265,0.659,0.309,0.966,0.154c1.099-0.526,1.935-1.363,2.661-2.285
		c1.033-1.252,2.001-2.573,2.967-3.891c1.277-1.693,2.485-3.432,3.584-5.255c0.614-0.99,1.254-2.002,1.935-2.946
		c0.55-0.769,1.12-1.54,1.451-2.462c0.045-0.11,0.153-0.221,0.243-0.309c0.066-0.044,0.197-0.066,0.263-0.021
		c0.088,0.044,0.199,0.153,0.199,0.22c0,0.197,0,0.396-0.089,0.55c-0.417,0.748-0.835,1.495-1.296,2.221
		c-0.638,0.988-1.34,1.935-2,2.901c-1.496,2.221-2.968,4.441-4.485,6.64c-0.44,0.638-0.923,1.253-1.451,1.802
		c-0.748,0.77-1.275,1.737-2.068,2.508c-0.725,0.747-1.604,1.142-2.307,1.165C140.539,44.199,139.331,43.43,139.066,42.375z
		 M145.661,11.42c-0.132-0.462-0.615-0.726-1.055-0.571c-0.175,0.066-0.352,0.132-0.462,0.264c-0.417,0.417-0.812,0.835-1.187,1.296
		c-0.484,0.594-0.572,1.452-0.922,2.11c-0.352,0.682-0.836,1.275-1.056,2.045c-0.111,0.396-0.309,0.77-0.461,1.143
		c-0.243,0.638-0.505,1.296-0.748,1.935c-0.11,0.286-0.197,0.594-0.308,0.901c-0.46,1.297-0.923,2.594-1.384,3.891
		c-0.023,0.066,0.022,0.198,0.065,0.242c0.067,0.045,0.199,0.045,0.265,0c0.594-0.482,1.209-0.945,1.759-1.473
		c0.835-0.747,1.583-1.583,2.244-2.506c0.746-1.077,1.56-2.089,2.351-3.144c0.087-0.131,0.131-0.33,0.176-0.505
		c0.264-0.946,0.504-1.869,0.769-2.814c0.176-0.571,0.307-1.165,0.132-1.803C145.771,12.103,145.749,11.75,145.661,11.42z"/>
	<path fill="#808285" d="M184.671,29.229c-0.88,0.791-1.89,1.45-2.968,1.935c-0.264,0.109-0.505,0.221-0.747,0.329
		c-0.244,0.11-0.484,0.242-0.706,0.418c-0.438,0.308-0.921,0.66-1.494,0.77c-0.286,0.066-0.549,0.131-0.792,0.153
		c-0.375,0.044-0.659,0.221-0.856,0.55c-0.857,1.297-2.088,2.199-3.188,3.254c-0.9,0.901-2.132,1.21-3.318,1.342
		c-0.263,0.021-0.506-0.023-0.75-0.089c-0.24-0.065-0.504-0.13-0.791-0.196c-0.177-0.199-0.331-0.376-0.484-0.572
		c-0.154-0.176-0.307-0.353-0.483-0.506c-0.616-0.528-0.747-1.188-0.704-1.957c0.023-0.221,0.045-0.461,0.066-0.683
		c0.022-0.175,0.155-0.372,0.308-0.46c0.617-0.418,1.166-0.814,1.913-0.945c1.033-0.176,2.046-0.33,3.101-0.265
		c0.505,0.044,1.034,0.021,1.628,0.021c0.087-0.197,0.176-0.328,0.263-0.483c0.088-0.176,0.153-0.328,0.199-0.506
		c0.285-1.032,0.483-2.109,0.745-3.164c0.485-1.979,0.902-3.958,2.001-5.695c0.087-0.132,0.154-0.286,0.2-0.439
		c0-0.022,0-0.066,0-0.132v-0.154c-0.155-0.043-0.353-0.132-0.507-0.132c-1.209,0.044-2.332,0.352-3.231,1.209
		c-0.945,0.902-2.001,1.671-2.793,2.705c-0.065,0.088-0.174,0.154-0.264,0.241c-1.626,1.144-2.703,2.792-3.759,4.442
		c-0.242,0.352-0.417,0.726-0.594,1.143c-0.153,0.396-0.308,0.813-0.484,1.21c-0.461,1.033-0.9,2.109-1.384,3.144
		c-0.265,0.527-0.418,0.835-0.682,1.033c-0.132,0.109-0.286,0.175-0.484,0.265c-0.197,0.086-0.461,0.175-0.836,0.306
		c-0.461-0.24-0.659-0.57-0.571-1.055c0.331-1.759,0.639-3.517,0.969-5.275c0-0.044,0-0.067,0-0.089s0-0.065,0.021-0.109
		c0.681-1.363,0.749-2.946,1.209-4.375c0.922-2.858,1.738-5.761,2.617-8.618c0.682-2.242,1.319-4.507,2.088-6.706
		c0.617-1.758,1.385-3.451,2.109-5.145c0.156-0.374,0.375-0.703,0.573-1.011c0.11-0.198,0.287-0.375,0.44-0.505
		c0.485-0.418,1.077-0.462,1.627-0.286c0.549,0.198,0.593,0.747,0.593,1.188c0,0.659-0.021,1.296-0.197,1.978
		c-0.309,1.077-0.505,2.22-0.749,3.319c-0.021,0.066-0.021,0.109-0.021,0.154c0,0.066-0.023,0.132-0.044,0.199
		c-0.704,1.758-0.879,3.693-1.584,5.474c-0.307,0.747-0.438,1.56-0.702,2.329c-0.506,1.452-1.057,2.881-1.584,4.31
		c-0.241,0.616-0.482,1.253-0.704,1.89c-0.198,0.572-0.372,1.144-0.527,1.847c0.132-0.043,0.175-0.065,0.198-0.087
		c1.231-1.209,2.462-2.441,3.738-3.628c0.592-0.571,1.209-1.143,1.913-1.562c0.833-0.505,1.76-0.944,2.857-0.77
		c0.396,0.067,0.791,0.067,1.189,0.111c0.373,0.043,0.767,0.11,1.187,0.352c0.483,0.66,1.033,1.166,1.229,2.001
		c0.176,0.747,0.066,1.539-0.065,2.265c-0.152,0.812-0.44,1.604-0.727,2.351c-0.328,0.858-1.275,2.771-1.801,3.431
		c0.198,0.021,0.33,0,0.461-0.022c0.152-0.043,0.307-0.088,0.461-0.131c0.463-0.132,0.924-0.309,1.012-0.331
		c1.275-0.374,2.352-1.143,3.473-1.802c0.11-0.066,0.241-0.176,0.33-0.286c1.013-1.21,2.244-2.265,2.945-3.693
		c0.175-0.353,0.506-0.331,0.859-0.155c0.219,0.44,0.043,0.88-0.197,1.145C186.519,27.096,185.728,28.283,184.671,29.229z
		 M173.042,33.361c-0.374-0.066-0.748-0.175-1.123-0.175c-1.009-0.022-2,0.241-2.923,0.703c-0.153,0.086-0.309,0.263-0.351,0.438
		c-0.155,0.572-0.111,1.146,0.264,1.628c0.812,1.1,2.726,1.143,3.538,0.065c0.439-0.548,0.813-1.142,1.188-1.734
		c0.109-0.155,0.198-0.311,0.263-0.463c0.066-0.153,0.066-0.308,0-0.484c-0.13-0.11-0.241-0.11-0.374-0.065
		C173.371,33.316,173.217,33.383,173.042,33.361z"/>
	<path fill="#808285" d="M181.674,32.416c0.155-1.847,0.485-3.649,1.121-5.343c0.198-0.506,0.439-1.011,0.551-1.56
		c0.285-1.54,1.187-2.705,2.154-3.804c0.858-1.034,2.22-1.254,3.561-1.43c0.155-0.022,0.398,0.155,0.528,0.286
		c0.067,0.066,0.023,0.307-0.042,0.418c-0.221,0.373-0.507,0.726-0.705,1.099c-0.353,0.659-0.769,1.275-0.943,2.001
		c-0.42,1.671-1.211,3.166-1.738,4.771c-0.75,2.22-1.451,4.483-1.298,6.99c0.021,0.351,0.087,0.726,0.219,1.076
		c0.131,0.461,0.661,0.771,1.012,0.572c1.079-0.615,2.199-1.165,3.144-1.934c1.363-1.078,2.309-2.528,3.1-4.068
		c0.66-1.274,1.188-2.616,1.758-3.912c0.133-0.286,0.22-0.573,0.309-0.858c0.285-1.099,0.263-1.077-0.926-1.451
		c-0.505-0.154-1.032-0.418-1.47-0.748c-0.902-0.638-0.945-1.627-0.133-2.177c0.287-0.175,0.637-0.307,0.968-0.395
		c0.967-0.286,1.605,0,2.175,0.968c0.154,0.285,0.264,0.593,0.419,0.901c0.197,0.396,0.351,0.506,0.768,0.375
		c1.474-0.484,3.079-0.704,4.308-1.693c0.398-0.308,0.859-0.242,1.345,0.044c0.087,0.065,0.153,0.176,0.196,0.264
		c0.022,0-0.043,0.065-0.088,0.088c-0.572,0.286-1.142,0.616-1.736,0.835c-1.254,0.483-2.53,0.967-3.827,1.385
		c-0.615,0.198-0.965,0.483-1.142,1.166c-0.571,2.373-1.582,4.506-2.814,6.55c-0.264,0.462-0.549,0.925-0.836,1.385
		c-0.086,0.154-0.176,0.352-0.308,0.485c-1.252,1.406-2.681,2.594-4.331,3.494c-1.297,0.683-3.495-0.065-4.286-1.429
		c-0.506-0.857-0.681-1.735-0.968-3.011C181.717,33.56,181.629,32.966,181.674,32.416z M194.05,22.764
		c-0.064-0.109-0.417-0.154-0.525-0.087c-0.594,0.461-0.464,1.208,0.285,1.604c0.176,0.088,0.418,0.154,0.57,0.088
		c0.156-0.066,0.198-0.285,0.353-0.528C194.513,23.468,194.315,23.094,194.05,22.764z"/>
	<path fill="#808285" d="M202.73,12.938c0.285-0.704,0.46-1.429,0.725-2.133c0.154-0.483,0.417-0.879,0.902-1.144
		c1.297-0.703,2.24-0.241,2.306,1.232c0.045,0.682-0.108,1.363-0.173,2.044c-0.044,0.44-0.133,0.879-0.199,1.297
		c-0.044,0.44,0.131,0.747,0.594,0.791c0.681,0.088,1.363,0.154,2.045,0.243c0.417,0.043,0.857,0.066,1.297,0.153
		c0.132,0.022,0.286,0.22,0.33,0.374c0.021,0.066-0.198,0.287-0.33,0.308c-0.549,0.066-1.121,0.066-1.672,0.088
		c-0.505,0-1.011-0.044-1.493-0.022c-1.145,0.088-1.651,0.505-1.957,1.649c-0.682,2.396-1.318,4.815-2.022,7.212
		c-0.572,2.043-1.21,4.066-1.804,6.112c-0.462,1.604-0.922,3.23-1.297,4.879c-0.153,0.77-0.528,1.759,0.265,2.266
		c0.616,0.396,1.451-0.045,2.109-0.396c0.615-0.307,1.187-0.683,1.716-1.121c2.88-2.462,5.165-5.408,7.123-8.64
		c0.286-0.461,0.417-1.033,0.66-1.539c0.153-0.33,0.373-0.659,0.614-0.924c0.087-0.11,0.374-0.131,0.507-0.043
		c0.109,0.065,0.176,0.285,0.24,0.461c0.022,0.044-0.021,0.11-0.044,0.176c-0.506,1.012-0.879,2.088-1.495,3.013
		c-1.647,2.506-3.429,4.925-5.606,7.014c-0.439,0.439-0.966,0.769-1.449,1.164c-0.243,0.177-0.573,0.31-0.749,0.55
		c-1.098,1.386-2.636,1.472-4.221,1.451c-0.857-0.022-1.78-0.923-2-1.979c-0.175-0.836-0.286-1.737-0.241-2.594
		c0.109-2.243,0.396-4.486,1.056-6.641c0.263-0.836,0.417-1.693,0.593-2.55c0.528-2.77,1.343-5.474,2.178-8.157
		c0.086-0.285,0.174-0.593,0.26-0.901c0.111-0.549-0.107-0.879-0.658-0.857c-0.792,0-1.604,0.065-2.416,0.109
		c-0.243,0-0.484-0.022-0.705-0.088c-0.087-0.021-0.176-0.197-0.176-0.285c-0.021-0.11,0.089-0.286,0.176-0.286
		c0.659-0.111,1.342-0.199,2.001-0.286C202.488,15.136,201.917,15.004,202.73,12.938z"/>
	<path fill="#808285" d="M212.95,12.938c0.284-0.704,0.46-1.429,0.724-2.133c0.154-0.483,0.417-0.879,0.902-1.144
		c1.296-0.703,2.242-0.241,2.307,1.232c0.046,0.682-0.109,1.363-0.175,2.044c-0.045,0.44-0.133,0.879-0.197,1.297
		c-0.045,0.44,0.131,0.747,0.594,0.791c0.681,0.088,1.362,0.154,2.044,0.243c0.419,0.043,0.855,0.066,1.296,0.153
		c0.132,0.022,0.287,0.22,0.332,0.374c0.021,0.066-0.2,0.287-0.332,0.308c-0.548,0.066-1.12,0.066-1.669,0.088
		c-0.506,0-1.012-0.044-1.495-0.022c-1.145,0.088-1.65,0.505-1.957,1.649c-0.682,2.396-1.319,4.815-2.022,7.212
		c-0.571,2.043-1.21,4.066-1.803,6.112c-0.461,1.604-0.924,3.23-1.298,4.879c-0.154,0.77-0.526,1.759,0.266,2.266
		c0.614,0.396,1.449-0.045,2.108-0.396c0.616-0.307,1.187-0.683,1.715-1.121c2.88-2.462,5.166-5.408,7.123-8.64
		c0.286-0.461,0.417-1.033,0.66-1.539c0.154-0.33,0.374-0.659,0.615-0.924c0.089-0.11,0.374-0.131,0.505-0.043
		c0.11,0.065,0.178,0.285,0.242,0.461c0.021,0.044-0.021,0.11-0.044,0.176c-0.504,1.012-0.879,2.088-1.494,3.013
		c-1.648,2.506-3.43,4.925-5.604,7.014c-0.441,0.439-0.969,0.769-1.453,1.164c-0.241,0.177-0.57,0.31-0.748,0.55
		c-1.1,1.386-2.637,1.472-4.221,1.451c-0.857-0.022-1.781-0.923-2-1.979c-0.176-0.836-0.285-1.737-0.242-2.594
		c0.11-2.243,0.396-4.486,1.056-6.641c0.264-0.836,0.418-1.693,0.592-2.55c0.529-2.77,1.344-5.474,2.179-8.157
		c0.087-0.285,0.176-0.593,0.264-0.901c0.109-0.549-0.109-0.879-0.66-0.857c-0.792,0-1.604,0.065-2.417,0.109
		c-0.243,0-0.485-0.022-0.704-0.088c-0.089-0.021-0.177-0.197-0.177-0.285c-0.021-0.11,0.088-0.286,0.177-0.286
		c0.658-0.111,1.339-0.199,2.001-0.286C212.706,15.136,212.134,15.004,212.95,12.938z"/>
	<path fill="#808285" d="M232.973,24.633c-0.704,0.131-1.343,0.373-1.868,0.88c-0.571,0.525-0.969,1.119-1.254,1.822
		c-0.483,1.189-0.969,2.398-1.451,3.584c-0.197,0.485-0.418,0.902-0.856,1.231c-0.396,0.308-0.75,0.726-1.077,1.122
		c-1.077,1.341-2.354,2.462-3.782,3.43c-0.174,0.108-0.374,0.219-0.55,0.329c-0.526,0.265-1.03,0.065-1.165-0.439
		c-0.177-0.638-0.395-1.297-0.285-2c0.132-0.792,0.309-1.584,0.639-2.33c0.459-1.012,0.987-2.002,1.448-3.014
		c0.683-1.494,1.693-2.747,2.86-3.912c0.283-0.286,0.635-0.462,0.966-0.594c0.309-0.11,0.66-0.198,0.989-0.308
		c0.242-0.066,0.462-0.022,0.704,0.066c0.176,0.043,0.33,0.132,0.638,0.286c0.109,0.33,0.131,0.483,0.198,0.638
		c0.044,0.088,0.176,0.153,0.263,0.153c0.022,0,0.264-0.022,0.243-0.198v-0.396c0-0.132-0.023-0.263-0.111-0.374
		c-0.44-0.461-0.966-0.923-1.715-0.901c-0.46,0.022-0.944,0.11-1.406,0.198s-0.923,0.22-1.363,0.352
		c-0.264,0.087-0.528,0.175-0.748,0.33c-0.855,0.615-1.737,1.252-2.46,2.067c-1.585,1.781-2.486,3.913-3.278,6.111
		c-0.595,1.694,0.396,4.792,2.707,5.32c0.282-0.088,0.505-0.153,0.745-0.198c0.242-0.065,0.483-0.153,0.703-0.307
		c1.385-0.968,2.814-1.892,3.848-3.256c0.272-0.349,0.456-0.625,0.872-0.806c-0.009,0.057-0.015,0.104-0.015,0.148
		c-0.021,0.109-0.021,0.22-0.064,0.306c-0.574,1.593-0.946,3.23-1.262,4.882c0.021,0.815-0.041,1.589,0.171,2.364
		c0.365-0.112,0.767-0.115,1.116,0.042c0.196-0.082,0.395-0.157,0.599-0.225c0.136-0.79,0.313-1.576,0.562-2.336
		c0.22-0.659,0.461-1.32,0.572-1.978c0.307-1.584,0.923-3.014,1.626-4.441c0.174-0.352,0.307-0.727,0.462-1.077
		c0.307-0.791,0.55-1.627,0.924-2.397c0.416-0.878,0.967-1.714,1.426-2.571c0.134-0.219,0.244-0.483,0.287-0.747
		C233.896,24.984,233.478,24.545,232.973,24.633z M227.543,33.251l-0.044,0.022l-0.037-0.009c0,0.017-0.008,0.039-0.008,0.052
		l-0.155,0.088l0.111-0.153l-0.242-0.11l0.44-0.24L227.543,33.251z"/>
</g>
<g>
	<g>
		<path fill="#808285" d="M36.806,20.275c10.911,4.95,22.217,8.676,34.273,6.404c1.213-0.229,0.864-1.411-0.318-1.188
			c-11.366,2.143-22.214-1.62-32.447-6.262C37.63,18.918,35.9,19.864,36.806,20.275L36.806,20.275z"/>
	</g>
</g>
<g>
	<g>
		<path fill-rule="evenodd" clip-rule="evenodd" fill="#808285" d="M301.857,20.878c-1.66-0.748-3.424-1.118-3.562-1.564
			c-0.052-0.169,0.303-0.254,0.622-0.378c0.316-0.123,0.599-0.292,0.368-0.668c-0.242-0.389-1.7,0.026-3.056,0.408
			c-1.37,0.369-2.662,0.687-3.092-0.326c-0.163-0.374,0.354-0.637,0.846-0.95c0.483-0.309,0.946-0.674,0.582-1.302
			c-0.43-0.741-1.508-0.24-2.547,0.517c-1.052,0.751-2.054,1.75-2.686,1.869c-0.229,0.04-1.191,0.048-2.128,0.057
			c-0.938,0.004-1.854,0.005-1.987-0.139c-0.241-0.258,0.352-0.917,0.921-1.67c0.559-0.753,1.107-1.604,0.559-2.329
			c-0.855-1.109-1.994-0.106-2.789,1.216c-0.812,1.32-1.29,2.944-1.389,3.024c-0.129,0.108-0.943,0.414-1.775,0.654
			c-0.834,0.233-1.693,0.409-1.99,0.098c-0.199-0.209,0.291-0.734,0.763-1.287c0.469-0.556,0.926-1.146,0.528-1.557
			c-0.475-0.486-1.293-0.141-1.972,0.374c-0.679,0.514-1.211,1.181-1.279,1.258c-0.914,1.005-1.146,2.18-1.887,2.838
			c-0.442,0.392-1.862,1.039-3.108,1.861c-1.256,0.802-4.678,2.027-4.631,2.424c0.098,0.778,1.514,0.49,4.693-1.169
			c1.21-0.893,2.689-1.813,3.099-1.899c0.235-0.054,1.107,0.144,1.919,0.312c0.815,0.161,1.581,0.293,1.738-0.075
			c0.148-0.334-0.285-0.513-0.708-0.685c-0.423-0.175-0.835-0.341-0.591-0.726c0.32-0.5,1.155-0.572,1.941-0.459
			c0.787,0.109,1.521,0.402,1.737,0.504c0.448,0.208,1.403,0.976,2.268,1.535c0.87,0.555,1.66,0.894,2.022,0.115
			c0.288-0.609-0.613-1.217-1.592-1.694c-0.967-0.482-1.993-0.824-1.725-1.165c0.075-0.096,0.933-0.314,1.867-0.436
			c0.932-0.126,1.936-0.15,2.273-0.023c0.333,0.117,1.172,1.602,2.001,2.846c0.848,1.244,1.661,2.248,2.454,1.35
			c0.536-0.589-0.079-1.559-0.886-2.417c-0.793-0.862-1.769-1.6-1.575-1.908c0.195-0.315,0.991-0.325,1.796-0.19
			c0.805,0.133,1.607,0.413,1.873,0.561c0.22,0.122,1.038,1.121,1.806,1.955c0.773,0.831,1.502,1.486,1.961,0.806
			c0.191-0.273-0.231-0.953-0.721-1.574c-0.481-0.621-1.026-1.183-0.884-1.294c0.233-0.189,0.921-0.072,1.502,0.104
			c0.49,0.145,0.902,0.321,0.936,0.328c0.473,0.272,1.045,1.383,1.54,2.28c0.516,0.91,0.958,1.586,1.584,0.976
			c0.604-0.578,0.322-1.085-0.073-1.517c-0.391-0.431-0.883-0.771-0.553-1.084c0.24-0.229,1.842,0.923,3.11,2.019
			c1.294,1.07,2.312,2.073,2.744,0.873C305.01,22.742,303.526,21.601,301.857,20.878z"/>
	</g>
</g>
<g>
	<g>
		<path fill-rule="evenodd" clip-rule="evenodd" fill="#808285" d="M38.696,19.708c-1.433-0.473-2.981-0.729-3.522-0.995
			c-0.902-0.446-1.468-1.539-2.639-2.28c-0.088-0.058-0.793-0.57-1.595-0.892c-0.798-0.324-1.682-0.444-1.993,0.16
			c-0.26,0.51,0.348,0.969,0.961,1.389c0.615,0.417,1.238,0.8,1.106,1.061c-0.189,0.383-1.064,0.442-1.932,0.436
			c-0.866-0.013-1.737-0.094-1.892-0.166c-0.119-0.053-1.052-1.521-2.217-2.599c-1.149-1.086-2.534-1.765-3.027-0.446
			c-0.311,0.859,0.465,1.547,1.221,2.137c0.767,0.587,1.525,1.076,1.372,1.394c-0.087,0.178-0.962,0.421-1.861,0.669
			c-0.899,0.243-1.82,0.493-2.053,0.514c-0.64,0.055-1.892-0.659-3.119-1.116c-1.217-0.462-2.397-0.666-2.59,0.178
			c-0.164,0.715,0.386,0.948,0.942,1.121c0.558,0.177,1.132,0.297,1.088,0.707c-0.117,1.111-1.444,1.144-2.865,1.15
			c-1.41-0.012-2.926-0.028-3.042,0.419c-0.113,0.431,0.209,0.522,0.549,0.558c0.341,0.036,0.707,0.023,0.704,0.204
			c0,0.476-1.578,1.312-2.948,2.491c-1.384,1.159-2.468,2.677-1.961,3.397c0.768,1.062,1.449-0.196,2.371-1.593
			c0.893-1.419,2.085-2.978,2.382-2.818c0.408,0.217,0.038,0.685-0.208,1.214c-0.252,0.529-0.373,1.104,0.375,1.509
			c0.777,0.434,1.004-0.352,1.229-1.384c0.211-1.025,0.436-2.292,0.818-2.671c-0.11,0.111,0.28-0.229,0.785-0.553
			c0.503-0.328,1.127-0.628,1.406-0.505c0.17,0.073-0.186,0.77-0.466,1.508c-0.283,0.742-0.488,1.522-0.226,1.74
			c0.643,0.544,1.145-0.296,1.642-1.318c0.486-1.024,0.976-2.226,1.152-2.405c0.209-0.217,0.896-0.707,1.626-1.053
			c0.729-0.348,1.495-0.552,1.774-0.295c0.276,0.251-0.439,1.238-0.946,2.297c-0.52,1.06-0.823,2.177-0.137,2.611
			c1.022,0.67,1.505-0.535,1.951-1.983c0.427-1.445,0.795-3.128,1.08-3.333c0.286-0.216,1.252-0.46,2.182-0.587
			c0.93-0.129,1.814-0.147,1.915-0.072c0.358,0.262-0.526,0.873-1.309,1.607c-0.795,0.73-1.481,1.569-1.027,2.089
			c0.577,0.668,1.233,0.123,1.903-0.655c0.663-0.781,1.35-1.791,1.718-2.116c0.179-0.156,0.794-0.642,1.515-0.961
			c0.718-0.321,1.54-0.475,1.995-0.069c0.345,0.313,0,0.586-0.354,0.872c-0.354,0.282-0.717,0.573-0.477,0.862
			c0.259,0.319,0.954-0.017,1.685-0.392c0.729-0.384,1.503-0.812,1.746-0.822c0.415-0.026,2.104,0.481,3.522,1.034
			c1.425,0.526,2.626,1.075,2.491,0.286C41.423,20.84,40.134,20.159,38.696,19.708z"/>
	</g>
</g>
<g>
	<g>
		<path fill="#808285" d="M226.36,40.064c-1.946,6.048,9.373,3.824,12.307,2.288c4.261-2.23,7.998-5.738,11.51-8.986
			c4.902-4.534,13.057-5.287,19.107-7.805c1.22-0.508,0.142-1.625-0.873-1.203c-6.954,2.894-14.896,3.78-20.587,9.045
			c-2.44,2.257-5.077,4.33-7.699,6.373c-0.854,0.666-13.399,5.176-11.909,0.542C228.566,39.229,226.637,39.204,226.36,40.064
			L226.36,40.064z"/>
	</g>
</g>
</svg>
